<?xml version="1.0" encoding="utf-8"?>
<!-- Uploaded to: SVG Repo, www.svgrepo.com, Generator: SVG Repo Mixer Tools -->
<svg width="800px" height="800px" viewBox="0 0 1024 1024" class="icon"  version="1.1" xmlns="http://www.w3.org/2000/svg"><path d="M168.6 694.8h-22.9c-10.3 0-18.7-8.4-18.7-18.7v-44.4c0-10.3 8.4-18.7 18.7-18.7h22.9c10.3 0 18.7 8.4 18.7 18.7v44.4c0 10.2-8.4 18.7-18.7 18.7z" fill="#81B626" /><path d="M188.2 910.7h-62.1c-34.6 0-62.9-28.3-62.9-62.9V734c0-34.6 28.3-62.9 62.9-62.9h62.1c34.6 0 62.9 28.3 62.9 62.9v113.8c0 34.6-28.3 62.9-62.9 62.9z" fill="#98CC46" /><path d="M107.7 850.1V738.9c0-35.3 28.9-64.2 64.2-64.2H208c-6.6-2.3-13.7-3.6-21-3.6h-59.5c-35.3 0-64.2 28.9-64.2 64.2v111.3c0 35.3 28.9 64.2 64.2 64.2h23.4c-25.1-8.9-43.2-32.8-43.2-60.7z" fill="#7EAF2A" /><path d="M308.7 785.8h-87.9c-6.6 0-12-5.4-12-12V665.9c0-6.6 5.4-12 12-12h87.9c6.6 0 12 5.4 12 12v107.9c0 6.6-5.4 12-12 12z" fill="#784D16" /><path d="M629.2 253.8H435.6c-8.6 0-15.5-6.9-15.5-15.5V128.7c0-8.6 6.9-15.5 15.5-15.5h193.6c8.6 0 15.5 6.9 15.5 15.5v109.5c0 8.6-6.9 15.6-15.5 15.6z m-189-112v83.4c0 4.7 3.8 8.5 8.5 8.5h167.5c4.7 0 8.5-3.8 8.5-8.5v-83.4c0-4.7-3.8-8.5-8.5-8.5H448.7c-4.7 0-8.5 3.8-8.5 8.5z" fill="#964F10" /><path d="M785.7 183.5H297.4c-19.5 0-35.5 16-35.5 35.5v690.1h559.3V219c0-19.5-16-35.5-35.5-35.5z" fill="#F1B23B" /><path d="M896.7 407.2h-717c-35.2 0-64.1-28.8-64.1-64.1 0-35.2 28.8-64.1 64.1-64.1h717c35.2 0 64.1 28.8 64.1 64.1-0.1 35.3-28.9 64.1-64.1 64.1z" fill="#F75C2E" /><path d="M542.5 367.1c-175.2 0-330.1-16.8-424.1-42.5-1.8 5.9-2.8 12.1-2.8 18.6 0 35.2 28.8 64.1 64.1 64.1h717c35.2 0 64.1-28.8 64.1-64.1 0-5.7-0.8-11.2-2.2-16.4-94.7 24.4-245.8 40.3-416.1 40.3z" fill="#E7412E" /><path d="M477.9 401l-0.7-0.5V187c0-1.9-2.1-3.5-4.6-3.5H407c-2.5 0-4.6 1.6-4.6 3.5v213.5h0.4l32.1 47.8c1.7 2.5 6.3 2.5 8.1 0.1l34.9-47.4z" fill="#B56B17" /><path d="M402.4 311.9H477V365h-74.6z" fill="#2B2B2B" /><path d="M468.9 356.6h-62.1c-9.5 0-17.2-7.7-17.2-17.2s7.7-17.2 17.2-17.2h62.1c9.5 0 17.2 7.7 17.2 17.2 0 9.4-7.8 17.2-17.2 17.2z" fill="#F8E9CC" /><path d="M470.8 338.4h-18c-3.4 0-6.2-2.8-6.2-6.2 0-3.4 2.8-6.2 6.2-6.2h18c3.4 0 6.2 2.8 6.2 6.2 0 3.4-2.8 6.2-6.2 6.2z" fill="#FDFCF8" /><path d="M674.8 407.3l-0.7-0.5V187.1c0-2-2.1-3.6-4.6-3.6H604c-2.5 0-4.6 1.6-4.6 3.6v219.6h0.4l32.1 49.2c1.7 2.5 6.3 2.6 8.1 0.1l34.8-48.7z" fill="#B56B17" /><path d="M599.8 311.9h74.6V365h-74.6z" fill="#2B2B2B" /><path d="M668.2 356.6H606c-9.5 0-17.2-7.7-17.2-17.2s7.7-17.2 17.2-17.2h62.1c9.5 0 17.2 7.7 17.2 17.2 0.1 9.4-7.7 17.2-17.1 17.2z" fill="#F8E9CC" /><path d="M671.2 338.4h-18c-3.4 0-6.2-2.8-6.2-6.2 0-3.4 2.8-6.2 6.2-6.2h18c3.4 0 6.2 2.8 6.2 6.2 0 3.4-2.8 6.2-6.2 6.2z" fill="#FDFCF8" /><path d="M524.9 831.7H355.4c-9.1 0-16.6-7.5-16.6-16.6V654.2c0-9.1 7.5-16.6 16.6-16.6h169.5c9.1 0 16.6 7.5 16.6 16.6v160.9c0 9.2-7.5 16.6-16.6 16.6z" fill="#A87A2A" /><path d="M524.9 637.6H355.4c-9.1 0-16.6 7.5-16.6 16.6v50.3h202.7v-50.3c0-9.1-7.5-16.6-16.6-16.6z" fill="#7F520F" /><path d="M461.2 730.6l-0.4-0.2v-91.2c0-0.8-1.2-1.5-2.6-1.5h-37.4c-1.4 0-2.6 0.7-2.6 1.5v91.2h0.2l18.3 20.4c1 1.1 3.6 1.1 4.6 0l19.9-20.2z" fill="#B56B17" /><path d="M727.6 727.7H598.8c-6.6 0-12-5.4-12-12V641c0-6.6 5.4-12 12-12h128.8c6.6 0 12 5.4 12 12v74.7c0 6.6-5.4 12-12 12z" fill="#848484" /><path d="M610.2 629h18.7v98.7h-18.7zM679 629h18.7v98.7H679z" fill="#474747" /><path d="M617 578v261.1H424.4l110-261.1z" fill="#999999" /><path d="M621.3 910.8h-210c-4.2 0-7.7-3.4-7.7-7.7v-56.3c0-4.2 3.4-7.7 7.7-7.7h209.9c4.2 0 7.7 3.5 7.7 7.7v56.3c0 4.2-3.4 7.7-7.6 7.7zM625.2 578h-96c-3.4 0-6.1-2.8-6.1-6.1v-26c0-3.4 2.8-6.1 6.1-6.1h96c3.4 0 6.1 2.8 6.1 6.1v26c0 3.4-2.8 6.1-6.1 6.1z" fill="#515151" /><path d="M691 578v261.1h192.6L773.5 578z" fill="#999999" /><path d="M686.7 910.8h209.9c4.2 0 7.7-3.4 7.7-7.7v-56.3c0-4.2-3.5-7.7-7.7-7.7H686.7c-4.2 0-7.7 3.5-7.7 7.7v56.3c0 4.2 3.5 7.7 7.7 7.7zM682.8 578h96c3.4 0 6.1-2.8 6.1-6.1v-26c0-3.4-2.8-6.1-6.1-6.1h-96c-3.4 0-6.1 2.8-6.1 6.1v26c0 3.4 2.7 6.1 6.1 6.1z" fill="#515151" /><path d="M851.3 820.4c-5.4 2.2-11.6-0.4-13.8-5.7l-87.8-212.8c-2.2-5.4 0.4-11.6 5.7-13.8 5.4-2.2 11.6 0.4 13.8 5.7L857 806.6c2.3 5.3-0.3 11.6-5.7 13.8zM592 813.4c5.7 0 10.4-4.7 10.4-10.4V600.4c0-5.7-4.7-10.4-10.4-10.4s-10.4 4.7-10.4 10.4V803c0 5.7 4.7 10.4 10.4 10.4z" fill="#DDDDDD" /><path d="M886.3 884.3c-5.7 0-10.4-4.7-10.4-10.4v-10.7c0-5.7 4.7-10.4 10.4-10.4s10.4 4.7 10.4 10.4v10.7c0.1 5.7-4.6 10.4-10.4 10.4zM610.2 884.3c-5.7 0-10.4-4.7-10.4-10.4v-10.7c0-5.7 4.7-10.4 10.4-10.4s10.4 4.7 10.4 10.4v10.7c0.1 5.7-4.6 10.4-10.4 10.4z" fill="#E2E2E2" /><path d="M208.8 734.7h53.1v174.5h-53.1z" fill="#A87A2A" /><path d="M186.8 799.5c-6.2 0-11.2-5.1-11.2-11.2V713c0-6.2 5.1-11.2 11.2-11.2 6.2 0 11.2 5.1 11.2 11.2v75.3c0 6.1-5 11.2-11.2 11.2zM168.8 645.9c-4.6 0-8.4-3.8-8.4-8.4v-6.8c0-4.6 3.8-8.4 8.4-8.4 4.6 0 8.4 3.8 8.4 8.4v6.8c0 4.6-3.8 8.4-8.4 8.4z" fill="#ECF5D5" /></svg>