<?xml version="1.0" encoding="utf-8"?>
<!-- Uploaded to: SVG Repo, www.svgrepo.com, Generator: SVG Repo Mixer Tools -->
<svg width="800px" height="800px" viewBox="0 0 1024 1024" class="icon"  version="1.1" xmlns="http://www.w3.org/2000/svg"><path d="M459.5 272.1c-2.5 0-5.1-0.3-7.6-0.8L360 252.9c-10.1-2-18.8-7.9-24.6-16.5-5.7-8.6-7.8-18.9-5.8-29l16.6-82.7c3.6-18 19.6-31.1 38-31.1 2.5 0 5.1 0.3 7.6 0.8l91.9 18.4c20.9 4.2 34.5 24.6 30.3 45.5L497.5 241c-3.6 18-19.6 31.1-38 31.1z m-75.2-165.2c-12.1 0-22.5 8.6-24.9 20.4L342.8 210c-1.3 6.6 0 13.4 3.8 19 3.8 5.7 9.5 9.5 16.1 10.8l91.9 18.4c1.6 0.3 3.3 0.5 5 0.5 12.1 0 22.5-8.6 24.9-20.4l16.6-82.7c2.7-13.7-6.2-27.1-19.9-29.8l-91.9-18.4c-1.7-0.3-3.4-0.5-5-0.5zM578 272.1c-18.4 0-34.4-13.1-38-31.1l-16.6-82.7c-4.2-20.9 9.4-41.3 30.3-45.5l91.9-18.4c2.5-0.5 5-0.8 7.6-0.8 18.4 0 34.4 13.1 38 31.1l16.6 82.7c2 10.1 0 20.4-5.8 29-5.7 8.6-14.5 14.5-24.6 16.5l-91.9 18.4c-2.5 0.5-5 0.8-7.5 0.8z m75.2-165.2c-1.7 0-3.3 0.2-5 0.5l-91.9 18.4c-13.7 2.7-22.6 16.1-19.9 29.8l16.6 82.7c2.4 11.8 12.8 20.4 24.9 20.4 1.7 0 3.3-0.2 5-0.5l91.9-18.4c6.6-1.3 12.3-5.2 16.1-10.8 3.8-5.7 5.1-12.4 3.8-19l-16.6-82.7c-2.4-11.8-12.8-20.4-24.9-20.4z" fill="#144663" /><path d="M515.6 128.2m-62.3 0a62.3 62.3 0 1 0 124.6 0 62.3 62.3 0 1 0-124.6 0Z" fill="#A5D2E0" /><path d="M515.6 152.2c-13.2 0-24-10.8-24-24s10.8-24 24-24 24 10.8 24 24-10.8 24-24 24z" fill="#15536D" /><path d="M529.3 109.1m-19.1 0a19.1 19.1 0 1 0 38.2 0 19.1 19.1 0 1 0-38.2 0Z" fill="#FFFFFF" /><path d="M375.9 277.7h-62.3c-13.2 0-24-10.8-24-24V211c0-13.2 10.8-24 24-24h62.3c13.2 0 24 10.8 24 24v42.7c0 13.2-10.8 24-24 24z" fill="#1C8BBC" /><path d="M354.6 958.1h-16c-63.1 0-114.7-51.6-114.7-114.7V347c0-63.1 51.6-114.7 114.7-114.7h16c63.1 0 114.7 51.6 114.7 114.7v496.3c0 63.1-51.6 114.8-114.7 114.8z" fill="#25A0C8" /><path d="M425.7 884.7c-7.3 0-13.3-6-13.3-13.3V343.9c0-7.3 6-13.3 13.3-13.3 7.3 0 13.3 6 13.3 13.3v527.4c0.1 7.4-5.9 13.4-13.3 13.4z" fill="#C8E3EB" /><path d="M472.4 391.6H217.2c-6.6 0-12-5.4-12-12s5.4-12 12-12h255.3c6.6 0 12 5.4 12 12-0.1 6.6-5.5 12-12.1 12zM472.4 436.4H217.2c-6.6 0-12-5.4-12-12s5.4-12 12-12h255.3c6.6 0 12 5.4 12 12-0.1 6.6-5.5 12-12.1 12zM472.4 812.9H217.2c-6.6 0-12-5.4-12-12s5.4-12 12-12h255.3c6.6 0 12 5.4 12 12-0.1 6.6-5.5 12-12.1 12zM472.4 857.7H217.2c-6.6 0-12-5.4-12-12s5.4-12 12-12h255.3c6.6 0 12 5.4 12 12-0.1 6.6-5.5 12-12.1 12z" fill="#15749A" /><path d="M710.3 277.7H648c-13.2 0-24-10.8-24-24V211c0-13.2 10.8-24 24-24h62.3c13.2 0 24 10.8 24 24v42.7c0.1 13.2-10.8 24-24 24z" fill="#1C8BBC" /><path d="M689 958.1h-16c-63.1 0-114.7-51.6-114.7-114.7V347c0-63.1 51.6-114.7 114.7-114.7h16c63.1 0 114.7 51.6 114.7 114.7v496.3c0 63.1-51.6 114.8-114.7 114.8z" fill="#25A0C8" /><path d="M760.1 884.7c-7.3 0-13.3-6-13.3-13.3V343.9c0-7.3 6-13.3 13.3-13.3 7.3 0 13.3 6 13.3 13.3v527.4c0.1 7.4-5.9 13.4-13.3 13.4z" fill="#C8E3EB" /><path d="M806.8 391.6H551.6c-6.6 0-12-5.4-12-12s5.4-12 12-12h255.3c6.6 0 12 5.4 12 12-0.1 6.6-5.5 12-12.1 12zM806.8 436.4H551.6c-6.6 0-12-5.4-12-12s5.4-12 12-12h255.3c6.6 0 12 5.4 12 12-0.1 6.6-5.5 12-12.1 12zM806.8 812.9H551.6c-6.6 0-12-5.4-12-12s5.4-12 12-12h255.3c6.6 0 12 5.4 12 12-0.1 6.6-5.5 12-12.1 12zM806.8 857.7H551.6c-6.6 0-12-5.4-12-12s5.4-12 12-12h255.3c6.6 0 12 5.4 12 12-0.1 6.6-5.5 12-12.1 12z" fill="#15749A" /></svg>